<svg width="47" height="45" viewBox="0 0 47 45" fill="none" xmlns="http://www.w3.org/2000/svg">
<path d="M23.5 1.61804L28.5251 17.0836L28.6373 17.4291H29.0006L45.262 17.4291L32.1063 26.9873L31.8124 27.2008L31.9246 27.5463L36.9497 43.0119L23.7939 33.4537L23.5 33.2401L23.2061 33.4537L10.0503 43.0119L15.0754 27.5463L15.1876 27.2008L14.8937 26.9873L1.73796 17.4291L17.9994 17.4291H18.3627L18.4749 17.0836L23.5 1.61804Z" fill="#D9D9D9"/>
<path d="M23.5 1.61804L28.5251 17.0836L28.6373 17.4291H29.0006L45.262 17.4291L32.1063 26.9873L31.8124 27.2008L31.9246 27.5463L36.9497 43.0119L23.7939 33.4537L23.5 33.2401L23.2061 33.4537L10.0503 43.0119L15.0754 27.5463L15.1876 27.2008L14.8937 26.9873L1.73796 17.4291L17.9994 17.4291H18.3627L18.4749 17.0836L23.5 1.61804Z" fill="black" fill-opacity="0.2"/>
<path d="M23.5 1.61804L28.5251 17.0836L28.6373 17.4291H29.0006L45.262 17.4291L32.1063 26.9873L31.8124 27.2008L31.9246 27.5463L36.9497 43.0119L23.7939 33.4537L23.5 33.2401L23.2061 33.4537L10.0503 43.0119L15.0754 27.5463L15.1876 27.2008L14.8937 26.9873L1.73796 17.4291L17.9994 17.4291H18.3627L18.4749 17.0836L23.5 1.61804Z" stroke="black"/>
</svg>
